#tb 0: 1/1000
#media_type 0: video
#codec_id 0: rawvideo
#dimensions 0: 720x480
#sar 0: 0/1
0,     132499,     132499,        0,  1382400, 0x00000000
0,     132499,     132499,        0,  1382400, 0x8c93c2ba
0,     137459,     137459,        0,  1382400, 0x00000000
0,     147355,     147355,        0,  1382400, 0xb02e32ca
0,     152088,     152088,        0,  1382400, 0x00000000
0,     180797,     180797,        0,  1382400, 0x83b71116
0,     183357,     183357,        0,  1382400, 0x00000000
0,     183433,     183433,        0,  1382400, 0x85547fd1
0,     185799,     185799,        0,  1382400, 0x00000000
0,     185909,     185909,        0,  1382400, 0x00000000
0,     185910,     185910,        0,  1382400, 0xb6a8f181
0,     188606,     188606,        0,  1382400, 0x00000000
0,     188663,     188663,        0,  1382400, 0xb64d1a2c
0,     189925,     189925,        0,  1382400, 0x00000000
0,     190014,     190014,        0,  1382400, 0x7b37ecf3
0,     191675,     191675,        0,  1382400, 0x00000000
0,     199724,     199724,        0,  1382400, 0xdc025bd1
0,     201089,     201089,        0,  1382400, 0x00000000
0,     201175,     201175,        0,  1382400, 0x688b294d
0,     202733,     202733,        0,  1382400, 0x00000000
0,     202819,     202819,        0,  1382400, 0xa2b33d1b
0,     204684,     204684,        0,  1382400, 0x00000000
0,     204762,     204762,        0,  1382400, 0xb3e525e3
0,     206730,     206730,        0,  1382400, 0x00000000
0,     206806,     206806,        0,  1382400, 0xaa8fbdd7
0,     208637,     208637,        0,  1382400, 0x00000000
0,     208716,     208716,        0,  1382400, 0x7b7f26dd
0,     209978,     209978,        0,  1382400, 0x00000000
0,     210051,     210051,        0,  1382400, 0x15e2f836
0,     211575,     211575,        0,  1382400, 0x00000000
0,     211644,     211644,        0,  1382400, 0x0fee9b0c
0,     214306,     214306,        0,  1382400, 0x00000000
0,     214380,     214380,        0,  1382400, 0x89d62791
0,     217144,     217144,        0,  1382400, 0x00000000
0,     217225,     217225,        0,  1382400, 0xa6a9fd74
0,     219591,     219591,        0,  1382400, 0x00000000
0,     219652,     219652,        0,  1382400, 0x7896178d
0,     221483,     221483,        0,  1382400, 0x00000000
0,     223531,     223531,        0,  1382400, 0x01751a52
0,     225863,     225863,        0,  1382400, 0x00000000
0,     227510,     227510,        0,  1382400, 0xa3959c6f
0,     230809,     230809,        0,  1382400, 0x00000000
0,     230872,     230872,        0,  1382400, 0x3d3ea47b
0,     233033,     233033,        0,  1382400, 0x00000000
0,     233124,     233124,        0,  1382400, 0x593f8b24
0,     237220,     237220,        0,  1382400, 0x00000000
0,     237303,     237303,        0,  1382400, 0x171f05ba
0,     240033,     240033,        0,  1382400, 0x00000000
0,     240106,     240106,        0,  1382400, 0xb014cdf1
0,     242165,     242165,        0,  1382400, 0x00000000
0,     273556,     273556,        0,  1382400, 0xd918e667
0,     275217,     275217,        0,  1382400, 0x00000000
0,     295445,     295445,        0,  1382400, 0xc9406331
0,     296776,     296776,        0,  1382400, 0x00000000
0,     300049,     300049,        0,  1382400, 0xaf08b10d
0,     301949,     301949,        0,  1382400, 0x00000000
0,     302034,     302034,        0,  1382400, 0x00000000
0,     302035,     302035,        0,  1382400, 0x853a9d93
0,     303559,     303559,        0,  1382400, 0x00000000
0,     304203,     304203,        0,  1382400, 0x7491a87d
0,     305898,     305898,        0,  1382400, 0x00000000
0,     305947,     305947,        0,  1382400, 0xf7383c58
0,     307881,     307881,        0,  1382400, 0x00000000
0,     307957,     307957,        0,  1382400, 0xe66be411
0,     309720,     309720,        0,  1382400, 0x00000000
0,     321295,     321295,        0,  1382400, 0xd6850362
0,     323263,     323263,        0,  1382400, 0x00000000
0,     323356,     323356,        0,  1382400, 0x3e1ed109
0,     324584,     324584,        0,  1382400, 0x00000000
0,     324640,     324640,        0,  1382400, 0x39c1b7bd
0,     326403,     326403,        0,  1382400, 0x00000000
0,     327193,     327193,        0,  1382400, 0x35b85f2e
0,     328285,     328285,        0,  1382400, 0x00000000
0,     328360,     328360,        0,  1382400, 0x00000000
0,     328361,     328361,        0,  1382400, 0x83f103e5
0,     329885,     329885,        0,  1382400, 0x00000000
0,     329946,     329946,        0,  1382400, 0xbc1ca9b3
0,     331106,     331106,        0,  1382400, 0x00000000
0,     331230,     331230,        0,  1382400, 0x94d4a51e
0,     332857,     332857,        0,  1382400, 0x00000000
0,     332924,     332924,        0,  1382400, 0xf88cdfde
0,     334687,     334687,        0,  1382400, 0x00000000
0,     342600,     342600,        0,  1382400, 0xdd51423b
0,     344431,     344431,        0,  1382400, 0x00000000
0,     346771,     346771,        0,  1382400, 0x08259fa4
0,     348329,     348329,        0,  1382400, 0x00000000
0,     357640,     357640,        0,  1382400, 0x1663fa34
0,     359767,     359767,        0,  1382400, 0x00000000
0,     359834,     359834,        0,  1382400, 0xda2ceb55
0,     361096,     361096,        0,  1382400, 0x00000000
